<svg width="80" height="78" viewBox="0 0 80 78" fill="none" xmlns="http://www.w3.org/2000/svg">
<path d="M22.32 6.32L16.6 0.6C7 7.92 0.679999 19.2 0.119999 32H8.12C8.72 21.4 14.16 12.12 22.32 6.32ZM71.88 32H79.88C79.28 19.2 72.96 7.92 63.4 0.6L57.72 6.32C65.8 12.12 71.28 21.4 71.88 32ZM64 34C64 21.72 57.44 11.44 46 8.72V6C46 2.68 43.32 0 40 0C36.68 0 34 2.68 34 6V8.72C22.52 11.44 16 21.68 16 34V54L8 62V66H72V62L64 54V34ZM40 78C40.56 78 41.08 77.96 41.6 77.84C44.2 77.28 46.32 75.52 47.36 73.12C47.76 72.16 47.96 71.12 47.96 70H31.96C32 74.4 35.56 78 40 78Z" fill="#CCCCCC"/>
</svg>
